<?xml version="1.0" encoding="UTF-8" standalone="no"?>
<!-- Created with Inkscape (http://www.inkscape.org/) -->

<svg
   version="1.1"
   id="svg2"
   xml:space="preserve"
   width="586.66669"
   height="586.66669"
   viewBox="0 0 586.66669 586.66669"
   sodipodi:docname="4hiipro90r5ez4.eps"
   xmlns:inkscape="http://www.inkscape.org/namespaces/inkscape"
   xmlns:sodipodi="http://sodipodi.sourceforge.net/DTD/sodipodi-0.dtd"
   xmlns="http://www.w3.org/2000/svg"
   xmlns:svg="http://www.w3.org/2000/svg"><defs
     id="defs6" /><sodipodi:namedview
     id="namedview4"
     pagecolor="#ffffff"
     bordercolor="#666666"
     borderopacity="1.0"
     inkscape:pageshadow="2"
     inkscape:pageopacity="0.0"
     inkscape:pagecheckerboard="0" /><g
     id="g8"
     inkscape:groupmode="layer"
     inkscape:label="ink_ext_XXXXXX"
     transform="matrix(1.3333333,0,0,-1.3333333,0,586.66667)"><g
       id="g10"
       transform="scale(0.1)"><path
         d="m 1751.56,2835.17 c -67.2,-86.47 -191.79,-102.08 -278.26,-34.88 -86.47,67.21 -102.08,191.79 -34.87,278.26 l 0.02,0.03 1.09,1.37 c 22.07,29.91 46.51,59.08 73.14,87.35 29.3,31.09 59.2,59.15 89.5,83.96 163.09,133.53 371.46,213.67 598.35,213.67 h 0.02 v -0.78 c 261.49,0 497.77,-105.54 668.37,-276.14 170.58,-170.59 276.12,-406.87 276.13,-668.34 h 0.77 v -0.04 c 0,-93.22 -64.3,-171.42 -150.97,-192.69 L 1659.14,1881.12 c -103.59,-34.67 -215.68,21.2 -250.35,124.79 -34.68,103.59 21.19,215.68 124.79,250.36 L 2732.4,2656.4 c -24.92,96.23 -75.51,182.47 -144.07,251.03 -99.72,99.72 -236.88,161.42 -387.78,161.42 v -0.77 h -0.02 c -131.86,0 -252.75,-46.42 -347.22,-123.76 -19.77,-16.19 -37.25,-32.34 -52.29,-48.31 -14.29,-15.16 -28.18,-31.84 -41.59,-49.96 -2.48,-3.67 -5.09,-7.3 -7.85,-10.85 l -0.02,-0.03"
         style="fill:#295285;fill-opacity:1;fill-rule:nonzero;stroke:none"
         id="path12" /><path
         d="m 2210.85,1958.48 c 109.16,1.72 199.04,-85.39 200.75,-194.55 1.71,-109.16 -85.39,-199.04 -194.55,-200.75 -1,-0.02 -3.33,-0.05 -8.27,-0.09 -3.42,-0.04 -6.14,-0.07 -8.28,-0.1 v -0.41 c 11.35,-0.19 30.51,-0.31 0,-0.31 h -0.04 v 0.31 h 0.04 v 0.41 h -0.04 v 0.06 c -157.97,0 -306.12,38.2 -435.74,105.73 -19.7,10.26 -40.51,22.21 -62.34,35.79 -104.01,64.66 -194.57,149.02 -266.47,247.86 -64.21,88.61 -44.43,212.5 44.18,276.71 88.61,64.21 212.5,44.43 276.71,-44.18 41.75,-57.39 94.38,-106.41 154.86,-144 10.15,-6.31 22.14,-13.08 35.98,-20.29 75.22,-39.19 159.77,-61.61 248.63,-62.3 -4.14,-0.08 -4.72,-0.11 4.19,-0.03 v 0.01 -0.01 h 0.04 v 0.12 l -0.04,-0.01 v 0.68 h 0.04 c 34.32,0 12.58,-0.43 0,-0.67 v -0.12 l 5.18,0.05 z m -10.39,-395.49 c -10.64,-0.17 -6.69,-0.29 0,-0.41 z m 0,395.46 -4.19,-0.08 4.19,-0.02 z"
         style="fill:#0994dc;fill-opacity:1;fill-rule:nonzero;stroke:none"
         id="path14" /><path
         d="m 1646.81,2486.16 c 5.99,-109.16 -77.64,-202.51 -186.8,-208.5 -109.16,-5.99 -202.51,77.64 -208.5,186.8 l -0.02,0.3 c -1.93,34.54 -1.94,69.26 -0.04,103.96 l 0.05,0.77 -0.05,0.01 c 1.93,35.35 5.76,70.21 11.47,104.36 29.82,178.34 110.96,350.01 244.15,491.31 l 0.1,0.1 c 30.11,31.93 62.06,61.39 95.55,88.37 34.33,27.66 69.04,52 103.89,73.03 184.23,111.16 399.34,153.92 607.96,127.29 108.3,-13.7 184.99,-112.6 171.3,-220.9 -13.7,-108.31 -112.6,-185 -220.91,-171.3 -120.92,15.44 -246.07,-9.63 -353.72,-74.59 -21.91,-13.22 -42.15,-27.24 -60.49,-42.01 -19.18,-15.45 -37.65,-32.51 -55.25,-51.18 v 0.01 l -0.1,-0.11 c -77.41,-82.13 -124.55,-181.75 -141.83,-285.12 -3.46,-20.64 -5.73,-41 -6.82,-60.97 l -0.04,0.01 c -1.08,-20.37 -1.06,-40.85 0.08,-61.34 l 0.02,-0.3"
         style="fill:#0994dc;fill-opacity:1;fill-rule:nonzero;stroke:none"
         id="path16" /><g
         id="g18"
         transform="scale(10)"><text
           transform="matrix(1,0,0,-1,8.40117,93.7168)"
           style="font-variant:normal;font-weight:normal;font-size:76.6569px;font-family:Arial;-inkscape-font-specification:ArialMT;writing-mode:lr-tb;fill:#295285;fill-opacity:1;fill-rule:nonzero;stroke:none"
           id="text22"><tspan
             x="0 42.621235 68.147987 106.47643 149.09767 212.95287 276.80807 319.42929 344.95605 383.28448"
             y="0"
             sodipodi:role="line"
             id="tspan20">e-commerce</tspan></text></g></g></g></svg>
